<svg width="128" height="128" viewBox="0 0 128 128" fill="none" xmlns="http://www.w3.org/2000/svg">
  <rect width="128" height="128" rx="28" fill="#11151B"/>
  <path d="M27 36C27 31.5817 30.5817 28 35 28H63.5C67.9183 28 71.5 31.5817 71.5 36V54C71.5 58.4183 67.9183 62 63.5 62H35C30.5817 62 27 58.4183 27 54V36Z" fill="#FF7A59"/>
  <path d="M56.5 74C56.5 69.5817 60.0817 66 64.5 66H93C97.4183 66 101 69.5817 101 74V92C101 96.4183 97.4183 100 93 100H64.5C60.0817 100 56.5 96.4183 56.5 92V74Z" fill="#38CFC5"/>
  <path d="M71.5 52.5L83.75 64.75" stroke="#F5F7FA" stroke-width="7" stroke-linecap="round"/>
  <path d="M56.5 75.5L44.25 63.25" stroke="#F5F7FA" stroke-width="7" stroke-linecap="round"/>
</svg>
